<svg xmlns="http://www.w3.org/2000/svg" width="16" height="16" x="0" y="0" viewBox="0 0 172 172" style="fill:#000"><g fill="none" fill-rule="nonzero" stroke="none" stroke-dashoffset="0" stroke-linecap="butt" stroke-linejoin="miter" stroke-miterlimit="10" stroke-width="1" font-family="none" font-size="none" font-weight="none" text-anchor="none" style="mix-blend-mode:normal"><path fill="none" d="M0,172v-172h172v172z"/><g fill="#0266b8"><path d="M30.87938,10.25281c-2.795,0 -5.30781,1.70656 -6.35594,4.3c-1.06156,2.59344 -0.43,5.56312 1.57219,7.51156l63.93562,63.93562l-63.93562,63.93563c-1.80063,1.72 -2.52625,4.28656 -1.89469,6.70531c0.63156,2.40531 2.51281,4.28656 4.91813,4.91813c2.41875,0.63156 4.98531,-0.09406 6.70531,-1.89469l73.66437,-73.66438l-73.66437,-73.66437c-1.30344,-1.33031 -3.07719,-2.08281 -4.945,-2.08281zM75.61281,10.25281c-2.80844,0 -5.32125,1.70656 -6.36938,4.3c-1.06156,2.59344 -0.43,5.56312 1.57219,7.51156l63.93562,63.93562l-63.93562,63.93563c-1.80063,1.72 -2.52625,4.28656 -1.89469,6.70531c0.63156,2.40531 2.51281,4.28656 4.91813,4.91813c2.41875,0.63156 4.98531,-0.09406 6.70531,-1.89469l73.66437,-73.66438l-73.66437,-73.66437c-1.30344,-1.33031 -3.07719,-2.08281 -4.93156,-2.08281z"/></g></g></svg>