<svg xmlns="http://www.w3.org/2000/svg" xmlns:xlink="http://www.w3.org/1999/xlink" width="737" height="472" viewBox="0 0 737 472">
    <defs>
        <path id="a" d="M.303.074h127.288v116.58H.303z"/>
    </defs>
    <g fill="none" fill-rule="evenodd">
        <path fill="#000" d="M506.914 416.818H399.023c-2.953 0-5.347 2.402-5.347 5.365 0 2.962 2.394 5.364 5.347 5.364h107.891c2.953 0 5.347-2.402 5.347-5.364 0-2.963-2.394-5.365-5.347-5.365m-399.477-8.981h351.907c5.72 0 10.357-4.651 10.357-10.39 0-5.737-4.637-10.389-10.357-10.389H107.437c-5.72 0-10.357 4.652-10.357 10.39s4.637 10.389 10.357 10.389M227.7 421.452H22.598c-2.953 0-5.347 2.402-5.347 5.365v.888c0 2.962 2.394 5.363 5.347 5.363h205.101c2.953 0 5.347-2.401 5.347-5.363v-.888c0-2.963-2.394-5.365-5.347-5.365"/>
        <g transform="translate(549.135 12.58)">
            <mask id="b" fill="#fff">
                <use xlink:href="#a"/>
            </mask>
            <path fill="#E3DFE8" d="M260.76-15.74l-1.305-1.015-87.086 35.457-.226 1.64L260.76-15.74zm3.978 3.1l-1.305-1.016-91.754 37.358-.227 1.639 93.286-37.981zm7.955 6.197l-1.304-1.016-101.091 41.16-.226 1.639L272.693-6.443zm-15.911-12.395l-1.304-1.016-82.418 33.557-.226 1.64 83.948-34.18zm11.933 9.296l-1.304-1.015-96.423 39.259-.226 1.638 97.953-39.882zm-37.084-28.89l-54.43 22.16-.224 1.617 55.938-22.776-1.284-1zm5.262 4.1l-1.304-1.016-59.076 24.053-.226 1.64 60.606-24.677zm39.778 30.988l-1.304-1.016-105.76 43.06-.227 1.64L276.671-3.344zm-35.8-27.89l-1.304-1.015-63.744 25.954-.226 1.639 65.274-26.577zm7.956 6.199l-1.305-1.016-73.08 29.755-.227 1.639 74.612-30.378zm-3.978-3.1l-1.304-1.015-68.413 27.854-.226 1.64 69.943-28.478zm7.955 6.198l-1.304-1.016-77.75 31.656-.226 1.64 79.28-32.28zm17.839 72.95l.226-1.64-60.606 24.676 1.304 1.016 59.076-24.053zm1.38-10l.227-1.639-69.942 28.478 1.303 1.016 68.413-27.855zm.692-5l.226-1.638-74.611 30.378 1.304 1.016 73.08-29.756zm.69-4.999l.227-1.639-79.28 32.28 1.304 1.015 77.75-31.656zm-2.072 14.999l.227-1.639-65.275 26.576 1.304 1.017 63.744-25.954zm-1.377 9.975l.223-1.615-55.938 22.775 1.285 1 54.43-22.16zm7.593-54.971l.227-1.64-107.29 43.684 1.303 1.017 105.76-43.061zm-1.381 9.999l.226-1.64-97.953 39.883 1.304 1.016 96.423-39.26zm.69-5l.227-1.639L174.463 46.16l1.304 1.016 101.091-41.16zm-1.38 10l.226-1.64-93.286 37.982 1.305 1.016 91.755-37.358zm-.691 5l.226-1.64-88.617 36.08 1.305 1.016 87.086-35.457zm-.69 4.999l.225-1.64-83.948 34.18 1.304 1.016 82.418-33.556z" mask="url(#b)"/>
        </g>
        <g fill="#9E8FAE">
            <path d="M509.146 260.595h25.522v-25.561h-25.522v25.561zm-1.111 1.113h27.744V233.92h-27.744v27.787z"/>
            <path d="M534.834 261.11L508.2 234.874l.779-.792 26.633 26.235z"/>
            <path d="M509.146 287.27h25.522v-25.562h-25.522v25.562zm-1.111 1.112h27.744v-27.786h-27.744v27.786z"/>
            <path d="M534.834 287.784L508.2 261.548l.779-.793 26.633 26.236z"/>
            <path d="M509.146 313.943h25.522v-25.56h-25.522v25.56zm-1.111 1.112h27.744V287.27h-27.744v27.785z"/>
            <path d="M534.834 314.458L508.2 288.222l.779-.793 26.633 26.235z"/>
            <path d="M509.146 340.617h25.522v-25.562h-25.522v25.562zm-1.111 1.112h27.744v-27.786h-27.744v27.786z"/>
            <path d="M534.834 341.132L508.2 314.896l.779-.794 26.633 26.236z"/>
            <path d="M509.146 367.29h25.522v-25.56h-25.522v25.56zm-1.111 1.113h27.744v-27.786h-27.744v27.786z"/>
            <path d="M534.834 367.806L508.2 341.57l.779-.794 26.633 26.236z"/>
            <path d="M509.146 393.964h25.522v-25.561h-25.522v25.561zm-1.111 1.113h27.744V367.29h-27.744v27.787z"/>
            <path d="M534.834 394.479L508.2 368.244l.779-.794 26.633 26.236zM482.513 260.595h25.522v-25.561h-25.522v25.561zm-1.111 1.113h27.744V233.92h-27.744v27.787z"/>
            <path d="M508.2 261.11l-26.632-26.236.779-.792 26.633 26.235z"/>
            <path d="M482.513 287.27h25.522v-25.562h-25.522v25.562zm-1.111 1.112h27.744v-27.786h-27.744v27.786z"/>
            <path d="M508.2 287.784l-26.632-26.236.779-.793 26.633 26.236z"/>
            <path d="M482.513 313.943h25.522v-25.56h-25.522v25.56zm-1.111 1.112h27.744V287.27h-27.744v27.785z"/>
            <path d="M508.2 314.458l-26.632-26.236.779-.793 26.633 26.235z"/>
            <path d="M482.513 340.617h25.522v-25.562h-25.522v25.562zm-1.111 1.112h27.744v-27.786h-27.744v27.786z"/>
            <path d="M508.2 341.132l-26.632-26.236.779-.794 26.633 26.236z"/>
            <path d="M482.513 367.29h25.522v-25.56h-25.522v25.56zm-1.111 1.113h27.744v-27.786h-27.744v27.786z"/>
            <path d="M508.2 367.806l-26.632-26.236.779-.794 26.633 26.236z"/>
            <path d="M482.513 393.964h25.522v-25.561h-25.522v25.561zm-1.111 1.113h27.744V367.29h-27.744v27.787z"/>
            <path d="M508.2 394.479l-26.632-26.235.779-.794 26.633 26.236z"/>
        </g>
        <path fill="#9E8FAE" d="M482.513 260.595h25.522v-25.561h-25.522v25.561zm-1.111 1.113h27.744V233.92h-27.744v27.787z"/>
        <path fill="#9E8FAE" d="M482.347 261.11l-.779-.793 26.633-26.235.779.792z"/>
        <path fill="#9E8FAE" d="M482.513 287.27h25.522v-25.562h-25.522v25.562zm-1.111 1.112h27.744v-27.786h-27.744v27.786z"/>
        <path fill="#9E8FAE" d="M482.347 287.784l-.779-.793 26.633-26.236.779.793z"/>
        <path fill="#9E8FAE" d="M482.513 313.943h25.522v-25.56h-25.522v25.56zm-1.111 1.112h27.744V287.27h-27.744v27.785z"/>
        <path fill="#9E8FAE" d="M482.347 314.458l-.779-.794 26.633-26.235.779.793z"/>
        <path fill="#9E8FAE" d="M482.513 340.617h25.522v-25.562h-25.522v25.562zm-1.111 1.112h27.744v-27.786h-27.744v27.786z"/>
        <path fill="#9E8FAE" d="M482.347 341.132l-.779-.794 26.633-26.236.779.794z"/>
        <path fill="#9E8FAE" d="M482.513 367.29h25.522v-25.56h-25.522v25.56zm-1.111 1.113h27.744v-27.786h-27.744v27.786z"/>
        <path fill="#9E8FAE" d="M482.347 367.806l-.779-.794 26.633-26.236.779.794z"/>
        <path fill="#9E8FAE" d="M482.513 393.964h25.522v-25.561h-25.522v25.561zm-1.111 1.113h27.744V367.29h-27.744v27.787z"/>
        <path fill="#9E8FAE" d="M482.347 394.479l-.779-.793 26.633-26.236.779.794zM509.146 260.595h25.522v-25.561h-25.522v25.561zm-1.111 1.113h27.744V233.92h-27.744v27.787z"/>
        <path fill="#9E8FAE" d="M508.98 261.11l-.779-.793 26.633-26.235.779.792z"/>
        <path fill="#9E8FAE" d="M509.146 287.27h25.522v-25.562h-25.522v25.562zm-1.111 1.112h27.744v-27.786h-27.744v27.786z"/>
        <path fill="#9E8FAE" d="M508.98 287.784l-.779-.793 26.633-26.236.779.793z"/>
        <path fill="#9E8FAE" d="M509.146 313.943h25.522v-25.56h-25.522v25.56zm-1.111 1.112h27.744V287.27h-27.744v27.785z"/>
        <path fill="#9E8FAE" d="M508.98 314.458l-.779-.794 26.633-26.235.779.793z"/>
        <path fill="#9E8FAE" d="M509.146 340.617h25.522v-25.562h-25.522v25.562zm-1.111 1.112h27.744v-27.786h-27.744v27.786z"/>
        <path fill="#9E8FAE" d="M508.98 341.132l-.779-.794 26.633-26.236.779.794z"/>
        <path fill="#9E8FAE" d="M509.146 367.29h25.522v-25.56h-25.522v25.56zm-1.111 1.113h27.744v-27.786h-27.744v27.786z"/>
        <path fill="#9E8FAE" d="M508.98 367.806l-.779-.794 26.633-26.236.779.794z"/>
        <path fill="#9E8FAE" d="M509.146 393.964h25.522v-25.561h-25.522v25.561zm-1.111 1.113h27.744V367.29h-27.744v27.787z"/>
        <path fill="#9E8FAE" d="M508.98 394.479l-.779-.793 26.633-26.236.779.794z"/>
        <path fill="#9E8FAE" d="M478.506 396.916h58.877v-2.782h-58.877z"/>
        <path fill="#1957C2" d="M65.022 371.893c18.921 0 35.866-11.345 42.548-28.486l9.87-25.323c3.408-8.74-3.262-18.083-12.91-18.083H25.514c-9.648 0-16.318 9.342-12.911 18.083l9.87 25.323c6.683 17.141 23.627 28.486 42.548 28.486"/>
        <path fill="#031162" d="M70.884 300h-45.37c-9.647 0-16.318 9.343-12.91 18.084l9.87 25.323c4.178 10.716 12.366 19.167 22.541 23.997-.177-41.327 18.454-61.153 25.87-67.403"/>
        <path fill="#002A8A" d="M470.003 377.421c0 12.05-9.755 21.818-21.786 21.818H121.52c-12.026 0-21.782-9.768-21.782-21.818V187.675c0-12.047 9.756-21.816 21.782-21.816h326.696c12.031 0 21.786 9.769 21.786 21.816v189.746z"/>
        <path fill="#26CBDD" d="M448.217 165.86H121.521c-12.027 0-21.782 9.768-21.782 21.815v29.737h370.264v-29.737c0-12.047-9.755-21.815-21.786-21.815"/>
        <path fill="#1957C2" d="M99.74 217.412h370.263v-12.917H99.74z"/>
        <path fill="#FFF" d="M200.063 192.794h243.531v-16.647H200.063z"/>
        <path fill="#004DFF" d="M188.96 184.474c0 5.28-4.276 9.557-9.545 9.557-5.273 0-9.54-4.277-9.54-9.557 0-5.278 4.267-9.562 9.54-9.562 5.269 0 9.544 4.284 9.544 9.562"/>
        <path fill="#FFF" d="M163.097 184.474c0 5.28-4.276 9.557-9.547 9.557-5.27 0-9.545-4.277-9.545-9.557 0-5.278 4.275-9.562 9.545-9.562 5.271 0 9.547 4.284 9.547 9.562"/>
        <path fill="#031162" d="M137.23 184.474c0 5.28-4.274 9.557-9.544 9.557-5.267 0-9.54-4.277-9.54-9.557 0-5.278 4.273-9.562 9.54-9.562 5.27 0 9.545 4.284 9.545 9.562"/>
        <path fill="#E6E6E6" d="M136.307 385.879h3.5V220.715h-3.5zM119.836 231.291h5.799v-5.816h-5.799zM119.836 245.445h5.799v-5.81h-5.799zM119.836 259.608h5.799v-5.822h-5.799zM119.836 273.768h5.799v-5.828h-5.799zM119.836 287.904h5.799v-5.787h-5.799zM119.836 302.073h5.799v-5.81h-5.799zM119.836 316.236h5.799v-5.823h-5.799zM119.836 329.207h5.799v-5.81h-5.799zM119.836 343.364h5.799v-5.81h-5.799zM119.836 357.532h5.799V351.7h-5.799zM119.836 371.672h5.799v-5.799h-5.799z"/>
        <path fill="#FFF" d="M152.028 224.074l-2.976 4.067c-.208.277-.196.731 0 1.014l2.885 3.821c.22.283.573.283.802.016a.846.846 0 0 0 .179-.533.857.857 0 0 0-.162-.518s-1.921-2.551-2.49-3.31c.569-.768 2.602-3.559 2.602-3.559a.864.864 0 0 0 .166-.501.876.876 0 0 0-.2-.545c-.22-.267-.581-.261-.806.048M170.907 224.026a.939.939 0 0 0-.179.545c0 .176.059.362.15.496 0 0 2.024 2.796 2.598 3.56-.574.757-2.482 3.314-2.482 3.314a.85.85 0 0 0-.153.518c0 .186.045.378.174.533.225.267.595.267.81-.016l2.877-3.821c.204-.283.204-.737 0-1.014l-2.98-4.067c-.204-.31-.578-.315-.815-.048M165.33 224.044l-6.873 6.919c-.29.27-.29.719.016.984a.688.688 0 0 0 .997-.02l6.878-6.9a.674.674 0 0 0-.01-.983.709.709 0 0 0-1.008 0M153.704 375.549l-4.219 5.135a1.07 1.07 0 0 0 0 1.285l4.09 4.812c.312.356.813.377 1.137.02a.915.915 0 0 0 .253-.66 1 1 0 0 0-.23-.652s-2.722-3.21-3.53-4.166c.808-.976 3.69-4.495 3.69-4.495.147-.189.235-.41.235-.64 0-.242-.111-.504-.282-.68-.313-.336-.825-.336-1.144.04M176.636 375.504a1.082 1.082 0 0 0-.253.68c0 .235.083.45.212.64 0 0 2.87 3.527 3.683 4.496-.813.956-3.518 4.167-3.518 4.167-.153.189-.218.41-.218.653 0 .242.065.485.248.667.318.35.842.33 1.149-.027l4.078-4.814c.289-.336.289-.909 0-1.286l-4.225-5.136c-.29-.37-.82-.37-1.156-.04M168.905 375.536l-8.77 8.805a.864.864 0 0 0 .02 1.282.895.895 0 0 0 1.273-.02l8.775-8.799c.356-.37.356-.93-.013-1.281a.904.904 0 0 0-1.285.013"/>
        <path fill="#E29616" d="M150.636 243.98H180.1v-5.239h-29.465z"/>
        <path fill="#F19B0F" d="M143.361 319.486h33v-5.244h-33zM143.361 371.403h22.393v-5.261h-22.393z"/>
        <path fill="#17BB99" d="M150.433 256.953h45.965v-5.232h-45.965z"/>
        <path fill="#FBDD82" d="M149.254 333.646h43.608v-5.25h-43.608z"/>
        <path fill="#89C0C8" d="M151.611 345.428h41.251v-5.22h-41.25z"/>
        <path fill="#17BB99" d="M150.433 358.411h22.393v-5.232h-22.393z"/>
        <path fill="#FBDD82" d="M177.54 358.411h95.466v-5.232H177.54zM197.576 345.428h69.538v-5.22h-69.538z"/>
        <path fill="#E29616" d="M270.65 345.428h22.393v-5.22h-22.394z"/>
        <path fill="#89C0C8" d="M303.65 333.646h44.787v-5.25H303.65z"/>
        <path fill="#17BB99" d="M196.398 333.646h101.359v-5.25h-101.36z"/>
        <path fill="#FBDD82" d="M201.112 256.953h27.108v-5.232h-27.108zM150.293 282.908h30.644v-5.232h-30.644z"/>
        <path fill="#17BB99" d="M238.688 282.908l-50.68.017v-5.22l50.673-.047z"/>
        <path fill="#89C0C8" d="M234.113 256.953h47.144v-5.232h-47.144zM150.293 269.936h53.037v-5.243h-53.037z"/>
        <path fill="#E29616" d="M210.402 269.936h51.858v-5.243h-51.858z"/>
        <path fill="#17BB99" d="M268.153 269.936h35.358v-5.243h-35.358z"/>
        <path fill="#89C0C8" d="M150.433 295.873h62.465v-5.208h-62.465z"/>
        <path fill="#FBDD82" d="M217.613 295.873h34.179v-5.208h-34.18z"/>
        <path fill="#17BB99" d="M150.433 307.691h62.465v-5.25h-62.465z"/>
        <path fill="#89C0C8" d="M217.613 307.691h57.75v-5.25h-57.75z"/>
        <path fill="#17BB99" d="M257.685 295.873h64.822v-5.208h-64.822zM184.815 243.98h15.322v-5.239h-15.322z"/>
        <path fill="#E3DFE8" d="M188.754 423.695H36.434L2.68 323.355H155z"/>
        <path fill="#1957C2" d="M174.12 408.232H41.903L15.007 330.15h132.215z"/>
        <path fill="#FFF" d="M138.566 343.381H30.546c-.827 0-1.496-.67-1.496-1.498s.67-1.498 1.495-1.498h108.021c.827 0 1.496.67 1.496 1.498 0 .827-.67 1.498-1.496 1.498M145.08 361.162H37.06c-.827 0-1.497-.67-1.497-1.498s.67-1.499 1.496-1.499H145.08c.826 0 1.496.67 1.496 1.499 0 .827-.67 1.498-1.496 1.498M150.81 378.943H42.789c-.826 0-1.496-.671-1.496-1.498 0-.829.67-1.499 1.496-1.499h108.02c.827 0 1.497.67 1.497 1.499 0 .827-.67 1.498-1.496 1.498M157.155 396.623H49.135c-.826 0-1.496-.67-1.496-1.498s.67-1.499 1.495-1.499h108.021c.827 0 1.496.671 1.496 1.5 0 .826-.669 1.497-1.496 1.497"/>
        <path fill="#7DADFF" d="M147.222 330.15H15.006l.41 1.186h130.822l26.49 76.895h1.392z"/>
        <path fill="#26CBDD" d="M188.754 423.695H36.434l-4.253-12.64h152.32z"/>
        <path fill="#4B558F" d="M225.064 419.852H36.102L2.68 323.355a27.303 27.303 0 0 0-.316 18.658l28.538 82.813a5.5 5.5 0 0 0 5.2 3.712h188.962a4.34 4.34 0 0 0 4.337-4.343 4.34 4.34 0 0 0-4.337-4.343"/>
        <path fill="#9E8FAE" d="M36.101 419.852h13.425v8.686H36.101a5.5 5.5 0 0 1-5.199-3.712L2.364 342.013a27.303 27.303 0 0 1 .316-18.658l33.421 96.497z"/>
        <path fill="#FFF" d="M37.28 423.997a1.718 1.718 0 1 1-3.434 0 1.718 1.718 0 1 1 3.435 0M145.914 415.196h-75.27a3.571 3.571 0 0 1-3.27-2.143l-1.59-3.636h80.492l1.367 3.13c.546 1.249-.367 2.65-1.73 2.65"/>
        <path fill="#031162" d="M81.956 419.852c-4.066 0-4.066 8.686 0 8.686H36.102c5.052 0 5.052-8.686 0-8.686h45.854z"/>
        <path fill="#FFCB30" d="M53.654 422.903h14.028c.772 0 1.397.627 1.397 1.4v.517c0 .774-.625 1.401-1.397 1.401H53.654a1.4 1.4 0 0 1-1.398-1.4v-.518a1.4 1.4 0 0 1 1.398-1.4"/>
        <path fill="#002A8A" d="M530.306 309.636c9.696 8.72 53.828-34.531 44.131-43.25 0 0-5.374-4.688-8.366-4.688-2.993 0-15.194-.222-24.057 6.464-8.862 6.688-18.185 31.654-18.185 31.654s3.95 8.721 6.477 9.82"/>
        <path fill="#004DFF" d="M526.356 280.826c0 11.422 9.558 20.681 21.356 20.681 11.796 0 21.358-9.259 21.358-20.68s-9.562-20.682-21.358-20.682c-11.798 0-21.356 9.26-21.356 20.681"/>
        <path fill="#FFF" d="M558.802 294.635a1.27 1.27 0 0 1-.903-.372 1.187 1.187 0 0 1 .035-1.715c4.662-4.342 4.716-10.65 4.716-10.715 0-.67.561-1.212 1.253-1.212.692 0 1.253.543 1.253 1.212 0 .3-.063 7.414-5.486 12.464a1.27 1.27 0 0 1-.868.338"/>
        <path fill="#031162" d="M458.197 403.675l-17.508-87.157 67.256-69.918-3.525-4.793-70.798 72.585 17.709 88.35z"/>
        <path fill="#031162" d="M500.187 246.146l-7.861 8.06h8.302l2.703-2.81zM437.117 331.827l5.373-6.344-.336-1.67-6.747-.514z"/>
        <path fill="#FFF" d="M477.59 414.637c0 .467.39.848.876.848h11.61c.486 0 .88-.38.88-.848v-8.488c0-.468-.394-.847-.88-.847h-11.61a.86.86 0 0 0-.875.847v8.488z"/>
        <path fill="#031162" d="M454.765 406.61c28.604 0 51.791 6.465 51.791 18.047H402.973c0-11.582 23.186-18.047 51.792-18.047"/>
        <path fill="#031162" d="M454.765 413.83c5.2 0 4.163-3.82 2.224-7.205-.737-.01-1.478-.014-2.224-.014-6.315 0-12.364.315-17.96.93 2.887 1.853 10.572 6.29 17.96 6.29"/>
        <path fill="#FF654D" d="M498.57 252.345c4.363 4.073 11.307 3.949 15.512-.277 4.206-4.221 4.075-10.948-.285-15.018-4.362-4.071-11.306-3.948-15.512.277-4.204 4.223-4.078 10.946.284 15.018"/>
        <path fill="#031162" d="M502.506 248.393c2.107 1.965 5.463 1.906 7.492-.136a5.01 5.01 0 0 0-.14-7.252c-2.107-1.968-5.461-1.907-7.49.133a5.018 5.018 0 0 0 .138 7.255"/>
        <path fill="#FF654D" d="M426.276 315.419c0 5.866 4.913 10.622 10.97 10.622 6.058 0 10.97-4.756 10.97-10.622 0-5.868-4.912-10.622-10.97-10.622-6.057 0-10.97 4.754-10.97 10.622"/>
        <path fill="#031162" d="M431.947 315.419c0 2.833 2.372 5.13 5.299 5.13 2.924 0 5.298-2.297 5.298-5.13 0-2.834-2.374-5.132-5.298-5.132-2.927 0-5.299 2.298-5.299 5.132"/>
        <path fill="#FF654D" d="M443.797 403.208c0 5.867 4.91 10.623 10.968 10.623 6.059 0 10.968-4.756 10.968-10.623 0-5.866-4.91-10.622-10.968-10.622-6.059 0-10.968 4.756-10.968 10.622"/>
        <path fill="#031162" d="M449.466 403.208c0 2.832 2.373 5.131 5.3 5.131 2.926 0 5.298-2.299 5.298-5.131 0-2.833-2.372-5.13-5.299-5.13-2.926 0-5.299 2.297-5.299 5.13M510.384 259.706l11.656-11.709-4.941-4.61-11.657 11.707z"/>
        <path fill="#26CBDD" d="M574.584 266.533c-21.343-19.92-41.162-32.838-60.438-14.17-17.722 17.16-4.497 38.043 16.846 57.962-14.348-13.392 29.244-57.185 43.592-43.792"/>
        <path fill="#1957C2" d="M443.797 403.208c0 5.867 4.91 10.623 10.968 10.623 6.059 0 10.968-4.756 10.968-10.623 0-5.866-4.91-10.622-10.968-10.622-6.059 0-10.968 4.756-10.968 10.622m-6.551-77.168c6.058 0 10.97-4.755 10.97-10.622s-4.912-10.62-10.97-10.62c-6.057 0-10.97 4.753-10.97 10.62 0 5.867 4.913 10.622 10.97 10.622m61.039-88.713c-4.205 4.223-4.077 10.946.284 15.018 4.364 4.073 11.309 3.948 15.513-.277 4.206-4.222 4.074-10.948-.286-15.019-4.361-4.07-11.306-3.947-15.511.278"/>
        <path fill="#FFF" d="M506.21 241.005c2.018 0 3.648 1.58 3.648 3.532 0 1.953-1.63 3.533-3.647 3.533-2.015 0-3.646-1.58-3.646-3.533 0-1.952 1.631-3.532 3.646-3.532M437.246 311.817c2.014 0 3.647 1.58 3.647 3.532 0 1.953-1.633 3.532-3.647 3.532-2.017 0-3.65-1.579-3.65-3.532 0-1.952 1.633-3.532 3.65-3.532M454.765 399.676c2.013 0 3.648 1.58 3.648 3.532s-1.635 3.534-3.648 3.534c-2.016 0-3.646-1.582-3.646-3.534 0-1.952 1.63-3.532 3.646-3.532"/>
        <path fill="#000" d="M186.61 170.947c2.129 1.53 4.924 1.752 7.537 1.571 2.613-.181 5.222-.713 7.831-.481 2.52.224 5.25 1.455 6.027 3.867.466 1.45-1.091 9.947 2.895 7.96 1.294-.645 1.286-2.897 2.256-4.002 1.088-1.24 2.708-2.03 4.365-2.029 2.341.002 4.603 1.58 5.413 3.781.617 1.677.706 3.939 2.374 4.574 1.678.639 3.275-1.032 4.301-2.507l2.714-3.901c.825-1.184 1.676-2.44 1.814-3.876.138-1.438-.727-3.08-2.157-3.265a62.355 62.355 0 0 1 14.797-2.513c1.418-.067 2.881-.095 4.18-.668 1.3-.574 2.407-1.857 2.288-3.274-.01-.11-.028-.22-.053-.325h-22.869c-5.393.38-10.812.38-16.206 0h-29.908c-.2 1.88.81 3.945 2.401 5.088"/>
        <path fill="#031162" d="M200.397 154.433l40.28-1.76-2.491 9.118-23.452 9.85-14.936-6.668z"/>
        <path fill="#FF654D" d="M204.694 150.573l.35 7.17h30.778l.776-15.01z"/>
        <path fill="#F2577E" d="M214.592 122.729s-13.144 2.668-15.56 4.655c-2.418 1.988-4.813 26.375-3.996 27.5.817 1.125 50.006 2.275 51.14.166 1.133-2.108-5.184-27.365-6.884-28.63-1.701-1.265-20.534-3.975-24.7-3.691"/>
        <path fill="#000D41" d="M235.825 148.53h-.012a.145.145 0 0 1-.132-.157c.4-4.646.003-17.729-.001-17.861a.145.145 0 0 1 .14-.15c.069.01.147.06.15.141.004.132.401 13.232 0 17.895a.145.145 0 0 1-.145.133M203.352 148.055a.147.147 0 0 1-.144-.162c.628-5.5-.503-16.797-.515-16.91a.145.145 0 1 1 .288-.03c.012.114 1.147 11.442.515 16.973a.145.145 0 0 1-.144.129"/>
        <path fill="#FEBAC7" d="M207.917 153.87l-.62-2.512a.336.336 0 0 1 .225-.4l.85-.264a.336.336 0 0 0 .23-.26l.144-.78a.335.335 0 0 1 .329-.274h.695c.115 0 .223-.06.284-.158l.423-.679a.336.336 0 0 1 .455-.11l.805.477c.102.06.23.063.334.004l.472-.264a.334.334 0 0 1 .443.107l1.692 2.561a.335.335 0 0 1-.105.472l-.375.229a.334.334 0 0 1-.425-.064c-.221-.251-.633-.057-.581.274l.017.111a.336.336 0 0 1-.183.352l-3.318 1.64a.336.336 0 0 1-.068.025c-.208.052-1.228.266-1.677-.38a.321.321 0 0 1-.046-.107M231.3 153.87l.62-2.512a.336.336 0 0 0-.225-.4l-.85-.264a.336.336 0 0 1-.23-.26l-.144-.78a.335.335 0 0 0-.329-.274h-.695a.335.335 0 0 1-.284-.158l-.424-.679a.335.335 0 0 0-.454-.11l-.804.477a.334.334 0 0 1-.335.004l-.472-.264a.334.334 0 0 0-.443.107l-1.692 2.561a.335.335 0 0 0 .105.472l.375.229a.334.334 0 0 0 .425-.064c.221-.251.633-.057.581.274l-.017.111a.335.335 0 0 0 .183.352l3.318 1.64a.343.343 0 0 0 .068.025c.208.052 1.228.266 1.677-.38a.321.321 0 0 0 .046-.107"/>
        <path fill="#000D41" d="M207.286 150.5c-.007 0-.013 0-.02-.002l-7.87-1.16a.145.145 0 0 1 .043-.287l7.869 1.16c.079.013.133.086.122.165a.146.146 0 0 1-.144.124M232.624 150.918a.146.146 0 0 1-.143-.12.146.146 0 0 1 .117-.168l6.397-1.143a.142.142 0 0 1 .168.117.145.145 0 0 1-.117.168l-6.397 1.144a.136.136 0 0 1-.025.002"/>
        <path fill="#FEBAC7" d="M212.492 117.085s-1.105 9.509 5.657 9.509c6.15 0 5.935-8.181 5.935-8.181s.615-5.063-4.153-5.636c-4.768-.573-7.727 2.599-7.44 4.308"/>
        <path fill="#031162" d="M222.448 113.965s-1.503 2.947.02 4.445c.972.955 1.402 2.333 1.09 3.66l-.017.072s2.553-2.025 3.026-6.132c.473-4.107-1.387-6.692-2.963-6.4 0 0-.627-3.155-4.628-2.86-4.001.295-7.304-.03-8.753 3.147-1.449 3.176 1.077 5.958 1.077 5.958s.197 3.363 1.563 6.288l-.534-3.925s4.397-5.916 10.119-4.253"/>
        <path fill="#FEBAC7" d="M224.008 118.922l-.467 3.22s2.273-1.209 2.237-2.847c-.012-.547-.202-.849-.449-1.008-.527-.34-1.231.013-1.321.635M212.505 117.997l.393 4.145s-2.183-1.268-2.147-2.907c.036-1.639 1.754-1.238 1.754-1.238"/>
        <path fill="#E6E7E8" d="M230.392 140.212h-22.768c-1.001 0-1.813.813-1.813 1.816v15.049c0 1.002.812 1.815 1.813 1.815h22.768c1.001 0 1.813-.813 1.813-1.815v-15.05a1.814 1.814 0 0 0-1.813-1.815"/>
        <path fill="#746980" d="M231.766 159.772H206.25a.44.44 0 0 1 0-.88h25.516a.44.44 0 0 1 0 .88"/>
        <path fill="#9E8FAE" d="M227.969 159.299a.187.187 0 1 1-.374 0 .187.187 0 0 1 .374 0M225.633 159.486h1.51v-.375h-1.51z"/>
        <path fill="#1957C2" d="M191.923 148.324l34.962 21.26c-2.814 2.288-4.38 5.279-5.011 8.796l-36.418-18.37c-3.666-1.848-4.814-6.541-2.415-9.878a6.67 6.67 0 0 1 8.882-1.808"/>
        <path fill="#031162" d="M216.775 172.81l-2.22 1.878 4.392 2.215c1.313-1.133 3.875-3.318 4.257-3.464.517-.197-6.43-.629-6.43-.629"/>
        <path fill="#031162" d="M226.885 169.583l5.823 3.286a.9.9 0 0 1 .338 1.232c-1.536 2.682-6.66 11.353-9.367 12.532 0 0-2.185-.703-1.348-3.565.837-2.863-.29-5.51-.29-5.51s.19-6.673 4.844-7.975"/>
        <path fill="#2C4B80" d="M223.68 186.633c2.706-1.179 7.83-9.85 9.366-12.532a.9.9 0 0 0-.103-1.04c-1.04.618-5.546 3.752-9.264 13.572"/>
        <path fill="#1957C2" d="M245.237 150.724l-36.94 17.589c2.569 2.563 3.823 5.698 4.093 9.26l38.094-14.564c3.835-1.465 5.453-6.018 3.406-9.58a6.671 6.671 0 0 0-8.653-2.705"/>
        <path fill="#031162" d="M208.298 168.313l-6.127 2.675a.9.9 0 0 0-.46 1.19c1.255 2.826 5.471 11.974 8.045 13.423 0 0 2.245-.477 1.703-3.41-.542-2.933.848-5.452.848-5.452s.488-6.657-4.01-8.426"/>
        <path fill="#2C4B80" d="M209.756 185.6c-2.574-1.448-6.79-10.595-8.046-13.42a.9.9 0 0 1 .208-1.024c.972.72 5.136 4.296 7.838 14.444"/>
        <path fill="#FF654D" d="M195.098 148.608c-.26 3.4-.312 5.931-.062 6.276.23.317 4.283.635 10.017.882l-9.955-7.158zM231.987 156.202c7.781-.09 13.8-.43 14.188-1.152.278-.517.109-2.42-.33-5.02l-13.858 6.172z"/>
        <path fill="#000D41" d="M209.713 167.784a.145.145 0 0 1-.063-.276l6.626-3.155a.145.145 0 0 1 .125.262l-6.626 3.155a.145.145 0 0 1-.062.014"/>
        <path fill="#8686FE" d="M510.886 157.886l-9.344-3.555 3.345-17.951-4.833-.645s-6.347 19.263-6.236 20.485c.11 1.221 12.865 9.997 12.865 9.997l4.203-8.331z"/>
        <path fill="#031162" d="M544.319 218.72l5.1-2.233a1.035 1.035 0 0 1 1.367.801l.385 2.272-1.094 1.156 1.36.415 1.504 8.847-1.043.825s-2.33-6.037-5.927-6.943l-1.652-5.14zM489.233 226.69l-1.271 5.427c-.19.614-.889.909-1.46.615l-2.048-1.052-.268-1.57-1.147.843-7.973-4.096-.033-1.33s6.222 1.748 9.1-.593l5.1 1.755z"/>
        <path fill="#031162" d="M510.886 187.641l-1.711 2.049a7.097 7.097 0 0 1-2.518 1.914c-4.618 2.093-15.038 8.201-15.905 8.97-1.041.92-7.904 24.499-7.904 24.499 1.094.79 3.942 1.624 6.623 2.453 0 0 8.271-13.48 9.69-20.437l18.194-5.912 3.459-10.475-9.928-3.06z"/>
        <path fill="#1957C2" d="M520.942 225.599s12.185 2.261 24.97-.825c1.166-2.61-.073-4.418-1.94-6.553-10.638 2.534-17.872-.51-17.872-.51-.191-1.58.025-6.07.265-7.55 1.236-7.601 3.474-13.248.046-20.686-.51-1.107-.378-.758-.807-1.698-3.867-.789-11.892-.144-16.268.3 0 0 .278 11.355 5.705 14.28 0 0-.518 18.695 5.901 23.242"/>
        <path fill="#F2577E" d="M525.838 158.718l-15.842-.882-3.01.288s-1.675 5.626-.533 11.647c1.286 6.78 1.761 14.5 1.899 17.259a1.1 1.1 0 0 0 1.1 1.047h16.634a.707.707 0 0 0 .695-.58l3.837-20.945c.222-1.477.474-7.834-4.78-7.834"/>
        <path fill="#FEBAC7" d="M515.071 144.168s-1.318 1.453-1.318 3.632c0 2.179-.857 2.905-.857 4.291 0 1.387 1.648 2.378 2.571 3.302.923.925.19 2.716.19 2.716a3.914 3.914 0 0 0 4.943.54l.537-.351s-.527-1.915 0-3.301c.527-1.387 3.098-4.688 2.241-7.263-.857-2.576-4.911-6.967-8.307-3.566"/>
        <path fill="#031162" d="M520.411 150.309s.857.013.857 1.36c0 1.347-1.054 1.875-1.384 1.875-.33 0 1.253 1.453 1.253 1.453s3.099 1.716 3.626 0c.527-1.717-.791-1.963-.791-1.963s2.736-1.57 1.582-2.725c-1.153-1.156-1.187-.859-.923-2.245.263-1.387.041-4.424-1.793-4.424 0 0 .145-2.113-2.229-2.575-2.373-.462-3.494.726-3.494.726s-1.252-1.6-2.57-.833c-1.32.767-1.65 1.427-1.65 1.427s-.955-.495-1.713.264c-.758.76-.198 4.16 3.362 3.83 3.56-.33 3.68-.99 3.68-.99s-1.41 1.673-.318 2.766c1.092 1.093 1.78 1.988 1.78 2.384 0 .396.725-.33.725-.33"/>
        <path fill="#FEBAC7" d="M504.186 137.533s.575-1.23.575-2.2l-4.703-.755.182 2.46s3.786.877 3.946.495"/>
        <path fill="#FEBAC7" d="M499.774 129.27l.302 5.553 4.683.582s.523-1.165 1.26-1.904c.737-.738.312-1.533.312-1.533s-.723-.596-1.007.185c-.283.78-.283 1.221-.837 1.15-.552-.07-.467-3.22-.467-3.22l-4.246-.813z"/>
        <path fill="#FEBAC7" d="M499.774 129.189s0 1.87 1.006 2.12c0 0 .49.174.376-.408-.114-.582-.241-1.051-.241-1.434 0-.384-.963-1.054-1.14-.278"/>
        <path fill="#FEBAC7" d="M500.809 129.325s0 1.965 1.056 2.23c0 0 .515.181.396-.43-.12-.612-.254-1.105-.254-1.507 0-.404-1.011-1.107-1.198-.293"/>
        <path fill="#FEBAC7" d="M501.929 129.453s0 1.965 1.056 2.23c0 0 .515.181.396-.43-.12-.612-.253-1.105-.253-1.508s-1.012-1.107-1.2-.292"/>
        <path fill="#FEBAC7" d="M503.105 129.78s0 1.965 1.057 2.229c0 0 .515.182.395-.43-.119-.612-.253-1.104-.253-1.507 0-.403-1.01-1.107-1.199-.293"/>
        <path fill="#FFCB30" d="M510.496 112.857c-7.827-.845-14.853 4.851-15.646 12.708a14.17 14.17 0 0 0 12.715 15.576 14.125 14.125 0 0 0 9.368-2.374 12.993 12.993 0 0 1 1.598-.937l3.21-1.568a9.063 9.063 0 0 1 4.951-.868l2.911.315.691-6.413.69-6.413-2.91-.315a9.071 9.071 0 0 1-4.654-1.904l-1.584-1.254a41.687 41.687 0 0 1-3.031-2.675 14.129 14.129 0 0 0-8.309-3.878"/>
        <path fill="#031162" d="M529.603 135.709l1.381-12.826 5.218.564a1.8 1.8 0 0 1 1.33.83l3.42 5.436a1.531 1.531 0 0 1-.157 1.451l-4.498 4.58c-.386.393-.93.588-1.476.529l-5.218-.564z"/>
        <path fill="#1957C2" d="M533.106 124.84l-1.026 9.526-.303-.033 1.025-9.525zM535.163 125.063l-1.026 9.525-.303-.033 1.025-9.525z"/>
        <path fill="#FFF" d="M506.953 126.95c-.01.085-.014.174-.014.266.001.742.396 1.58 1.502 1.699 1.096.118 1.934-.82 2.505-1.82a4.147 4.147 0 0 0-1.073-1.357c-.473-.39-.908-.566-1.294-.524-.753.083-1.514.7-1.626 1.735zm-.393 6.52c-.014.13-.01.26.015.393.123.685.737 1.294 1.493 1.482.404.101 1.178.152 1.798-.638.562-.718 1-2.042 1.265-3.379-1.728.14-3.048.38-3.609.765-.577.397-.908.875-.962 1.376zm1.395-13.237c-.042.396.077.902.655 1.436.366.34 1.294.818 3.43 1.456.042-1.11-.04-2.505-.57-3.489-.506-.943-1.285-1.026-1.703-.992-.776.063-1.508.599-1.741 1.275a1.364 1.364 0 0 0-.07.314zm21.232 11.425c-.146-.01-11.249-.797-17.609-.363-.273 1.441-.747 2.878-1.373 3.678-.562.717-1.38 1.006-2.242.791-.914-.227-1.66-.977-1.813-1.824-.086-.474-.053-1.391 1.128-2.203.622-.427 2.066-.689 3.931-.838.096-.56.158-1.112.186-1.61a4.397 4.397 0 0 0-.24-1.698c-.633 1.002-1.547 1.884-2.76 1.753-1.391-.15-1.886-1.24-1.887-2.128 0-1.071.709-2.287 2.024-2.431.506-.055 1.05.153 1.615.62.42.346.772.765 1.043 1.232.42-.854.645-1.639.67-1.728.012-.073.105-.609.156-1.344-1.786-.53-3.15-1.069-3.699-1.578-.963-.891-.852-1.767-.7-2.209.292-.844 1.162-1.487 2.116-1.565.89-.072 1.662.372 2.117 1.218.596 1.109.674 2.642.62 3.82 1.72.493 4.141 1.076 7.535 1.756a250.54 250.54 0 0 0 9.69 1.725l-.065.427c-.581-.09-11.047-1.716-17.187-3.47a13.24 13.24 0 0 1-.16 1.309l-.005.016a10.778 10.778 0 0 1-.846 2.103c.296.678.436 1.43.394 2.195a15.047 15.047 0 0 1-.173 1.555c6.36-.434 16.974.317 17.565.36l-.031.43z"/>
        <path fill="#000D41" d="M526.118 189.47h-6.609a.141.141 0 0 1-.142-.143c0-.078.063-.142.142-.142h6.609a.142.142 0 1 1 0 .284"/>
        <path fill="#E6E7E8" d="M515.04 189.623c0 .574.654 1.04 1.46 1.04.805 0 1.458-.466 1.458-1.04 0-.576-.653-1.042-1.459-1.042-.805 0-1.458.466-1.458 1.042"/>
        <path fill="#000D41" d="M513.986 189.594h-4.034a.142.142 0 1 1 0-.285h4.034c.08 0 .142.064.142.143a.141.141 0 0 1-.142.142"/>
        <path fill="#FEBAC7" d="M528.037 137.866l4.177-1.583-.708-4.67a.99.99 0 0 0-.22-.57l-2.75-3.52a.477.477 0 0 0-.761.57l1.728 2.518a.106.106 0 0 1-.018.14l-.14.125a.106.106 0 0 1-.158-.019l-1.382-2.251-1.42-1.69c-.136-.192-.593-.322-.77-.168 0 0-.43.383.056.914l1.052 1.354 1.459 2.413a.107.107 0 0 1-.179.118l-1.82-2.504a.528.528 0 1 0-.858.614l1.593 2.282a.107.107 0 0 1-.008.133l-.046.05a.107.107 0 0 1-.164-.007l-1.372-1.8a.406.406 0 0 0-.678.446l1.316 2.35.289 1.7c.092.54.303 1.053.617 1.502l1.165 1.553z"/>
        <path fill="#8686FE" d="M530.619 166.552s8.005-2.668 10.889-4.556c2.883-1.888-8.872-26.261-8.872-26.261l-5.201 2.053 5.644 19.431-11.42 1.266 8.96 8.067z"/>
        <path fill="#000D41" d="M526.118 167.885h-5.825a.142.142 0 1 1 0-.284h5.825a.142.142 0 0 1 0 .284"/>
        <path fill="#1957C2" d="M736.815 0l-54.738 10.183.348 17.26z"/>
        <path fill="#031162" d="M690.32 16.41l-7.895 11.033L736.815 0z"/>
        <path fill="#26CBDD" d="M736.815 0l-25.702 47.35L690.32 16.41z"/>
        <path fill="#7DADFF" d="M682.077 10.183L664.18 8.504 736.815 0z"/>
        <path fill="#F2F5FE" d="M664.83 33.46l-.117-.544c.732-.157 1.465-.305 2.2-.446l.105.546c-.731.14-1.461.288-2.189.444m-4.883 1.174l-.144-.538a105.51 105.51 0 0 1 2.176-.554l.131.54c-.724.176-1.444.36-2.163.552m-4.82 1.41l-.168-.53a102.58 102.58 0 0 1 2.145-.66l.157.534c-.713.21-1.424.43-2.134.656m-4.744 1.64l-.194-.521c.7-.26 1.404-.515 2.11-.761l.183.525a104.9 104.9 0 0 0-2.1.758m-4.661 1.862l-.218-.511c.687-.294 1.379-.58 2.072-.86l.207.516c-.69.278-1.377.563-2.061.855m-4.571 2.078l-.241-.501c.674-.326 1.35-.644 2.03-.954l.23.505c-.676.31-1.349.626-2.02.95m-4.47 2.284l-.263-.49c.657-.355 1.319-.703 1.984-1.045l.253.495c-.661.34-1.32.687-1.974 1.04m-4.364 2.485l-.285-.478c.642-.384 1.287-.762 1.935-1.133l.276.482c-.645.37-1.288.746-1.926 1.129m-4.25 2.675l-.306-.464c.624-.412 1.252-.819 1.883-1.219l.298.47c-.63.398-1.255.803-1.875 1.213m-4.129 2.86l-.325-.45c.605-.44 1.215-.873 1.828-1.3l.317.457c-.61.425-1.216.856-1.82 1.293m-4 3.038l-.345-.436c.585-.465 1.176-.924 1.77-1.378l.336.442c-.591.452-1.178.909-1.761 1.372m-3.867 3.208l-.363-.42c.565-.49 1.135-.975 1.709-1.454l.355.428c-.571.477-1.138.96-1.7 1.446m-3.726 3.373l-.381-.404a115.45 115.45 0 0 1 1.646-1.527l.373.413c-.55.5-1.097 1.006-1.638 1.518m-3.577 3.53l-.398-.387a118.68 118.68 0 0 1 1.579-1.596l.39.395c-.528.525-1.052 1.054-1.571 1.588m-3.425 3.681l-.414-.37c.498-.56 1.001-1.113 1.51-1.662l.406.378a121.29 121.29 0 0 0-1.502 1.654m-3.26 3.827l-.43-.352c.473-.58.952-1.156 1.437-1.727l.423.36c-.483.568-.959 1.14-1.43 1.719m-3.093 3.963l-.445-.333c.448-.6.901-1.195 1.36-1.787l.438.342c-.456.588-.907 1.181-1.353 1.778m-2.917 4.096l-.459-.313c.421-.62.848-1.234 1.28-1.845l.454.322c-.431.608-.856 1.22-1.275 1.836m-2.732 4.22l-.473-.292c.392-.637.792-1.27 1.198-1.9l.466.301c-.403.627-.8 1.258-1.191 1.891m-2.543 4.34l-.485-.272c.364-.654.735-1.305 1.112-1.952l.479.28c-.375.644-.743 1.292-1.106 1.943m-2.343 4.449l-.496-.25c.333-.669.673-1.336 1.021-2l.492.26c-.346.66-.684 1.323-1.017 1.99m-2.135 4.55l-.508-.224c.302-.685.612-1.367.928-2.046l.503.236c-.315.675-.623 1.353-.923 2.035m-1.92 4.644l-.518-.2c.27-.699.546-1.394.83-2.087l.515.212a106.1 106.1 0 0 0-.827 2.075m-1.697 4.73l-.528-.176c.237-.71.48-1.418.731-2.123l.523.187c-.25.701-.49 1.405-.726 2.112m-1.465 4.804l-.534-.15c.2-.72.408-1.439.625-2.155l.532.162a94.594 94.594 0 0 0-.623 2.143m-1.229 4.871l-.541-.123c.164-.73.337-1.459.519-2.185l.539.135c-.18.723-.352 1.446-.517 2.173"/>
        <path fill="#9E8FAE" d="M579.22 121.09l-.55-.07c.025-.37.048-.739.068-1.108l.14.008a.394.394 0 0 1 .005-.028l.195.039.214.011-.001.031.136.027c-.07.362-.14.726-.207 1.09"/>
        <path fill="#F2F5FE" d="M582.563 119.83a3.417 3.417 0 0 1-3.414 3.42 3.417 3.417 0 0 1-3.414-3.42 3.417 3.417 0 0 1 3.414-3.42 3.417 3.417 0 0 1 3.414 3.42"/>
        <path fill="#000" d="M372.538 460.797c-.65.033-1.258.388-1.556.97-.757 1.48 1.186 2.563 2.689 2.877a127.342 127.342 0 0 0 40.003 1.93c2.667-.295 5.545-.825 7.913-2.016 1.99-1 1.43-3.993-.783-4.238-3.587-.4-7.962-.93-8.707-.947-3.604-.076-7.197.026-10.8-.067-9.519-.246-19.267 1.008-28.759 1.491"/>
        <path fill="#2C4B80" d="M386.76 459.61h1.475v-67.38h-1.474z"/>
        <path fill="#031162" d="M394.046 463.254c1.884-1.007 3.39-2.184 4.264-3.645h3.524v3.794a.487.487 0 1 1-.974 0v-1.277l-.452.643a2.632 2.632 0 0 1-2.154 1.122h-3.974a.362.362 0 0 1-.234-.637"/>
        <path fill="#FE91A6" d="M396.697 461.481h2.213l1.65-1.871h1.274v-3.546h-3.562l.225 3.207z"/>
        <path fill="#031162" d="M401.881 463.254c1.885-1.007 3.39-2.184 4.264-3.645h3.525v3.794a.488.488 0 1 1-.975 0v-1.277l-.452.643a2.63 2.63 0 0 1-2.154 1.122h-3.973a.362.362 0 0 1-.235-.637"/>
        <path fill="#FEBAC7" d="M404.532 461.481h2.213l1.65-1.871h1.275v-3.546h-3.562l.224 3.207z"/>
        <path fill="#031162" d="M392.3 337.704s5.836 10.683 2.581 15.385c-3.254 4.701 3.7 3.44 3.7 3.44s3.83-9.96.832-15.552c-2.997-5.594-7.113-3.273-7.113-3.273M393.272 388.412s-2.898 6.56-2.41 13.873c.488 7.312 2.502 20.602 2.502 20.602l4.78 34.474h3.848s.581-25.363-.027-34.474l.421-34.475h-9.114z"/>
        <path fill="#FE91A6" d="M388.683 358.773s-2.726 7.962 6.53 22.562c0 0-17.975 3.317-20.146 3.9-2.169.585-2.276 2.952-2.276 2.952h27.94l-12.048-29.414z"/>
        <path fill="#1957C2" d="M393.272 388.412h21.564s2.516 7.349 1.134 16.988c-1.382 9.64-4.824 21.388-4.824 21.388s2.068 14.618-1.122 30.573h-4.316l-3.743-34.474-1.591-23.85s-8.989.6-7.102-10.625"/>
        <path fill="#031162" d="M414.836 388.412h-21.564c-.01.057-.017.11-.026.167h5.44s13.972-.059 17.127 4.032c-.44-2.633-.977-4.2-.977-4.2"/>
        <path fill="#7DADFF" d="M401.69 350.237s-18.657 2.474-11.435 13.111c2.092 3.08 1.824 5.545 3.242 11.488 1.86 7.793-.272 13.576-.272 13.576h21.564c-4.895-4.409 6.233-28.698 5.197-31.4-3.54-9.242-18.297-6.775-18.297-6.775"/>
        <path fill="#031162" d="M411.52 360.015s1.835 7.623 4.307 12.446c.683-2.352 1.427-4.69 2.098-6.817l-6.406-5.63z"/>
        <path fill="#FEBAC7" d="M414.463 352.714c-1.08.037-1.52.035-2.298.787-1.244 1.203-1.562 3.32-.52 6.975 1.408 4.934 8.41 20.102 8.41 20.102-8.019.925-15.357 2.627-23.459 3.914-7.605.585-8.362 3.92-8.362 3.92h7.88s30.415 1.109 31.823-2.394c1.31-3.259-3.989-33.627-13.474-33.304M392.3 337.704s-.876 7.453 2.736 9.125c3.613 1.67 3.519 3.654 3.519 3.654s-2.539 5.943 1.204 6.54c3.742.596 9.002-8.224 9.002-8.224s-3.273 1.1-3.544-1.806c-.271-2.906.843-10.277-.77-12.249-1.611-1.97-11.513-3.947-12.147 2.96"/>
        <path fill="#031162" d="M392.069 334.411c-.78 1.238-.105 2.86 1.315 3.2.8.192 1.78.297 2.812.11 2.553-.463 4.047-.956 4.047-.956s3.247 5.73 2.09 11.553-.718 10.083 3.004 11.168c3.722 1.085-.588-8.74 7.017-8.74 0 0-3.546-6.48-4.023-12.933-.477-6.454-7.279-7.609-12.336-6.062-2.168.662-3.32 1.696-3.926 2.66"/>
        <path fill="#BCBEC0" d="M405.207 390.179h-30.633v-1.835h32.106v.359c0 .815-.66 1.476-1.473 1.476"/>
        <path fill="#E6E7E8" d="M397.626 390.234h-25.933c-.777 0-1.585-.63-1.806-1.406l-4.588-16.114c-.22-.777.228-1.406 1.004-1.406h25.935c.775 0 1.583.629 1.805 1.406l4.588 16.114c.22.777-.23 1.406-1.005 1.406"/>
        <path fill="#9E8FAE" d="M409.733 393.426h-42.28c-.986 0-1.786-.8-1.786-1.789 0-.988.8-1.79 1.787-1.79h42.28c.986 0 1.786.802 1.786 1.79 0 .989-.8 1.79-1.787 1.79"/>
        <path fill="#2C4B80" d="M386.76 459.61l-3.674 3.428a.492.492 0 0 0 .335.852h7.978c.44 0 .658-.536.343-.843l-3.508-3.437h-1.473z"/>
        <path fill="#000" d="M96.656 470.711c1.24-.014 2.775-.216 3.18-1.305.308-.83-.305-1.762-1.134-2.184-.83-.42-1.815-.46-2.76-.487-12.15-.369-24.309-.981-36.45-1.327-1.397-.04-3.4-.159-4.4.97-1.254 1.412-.453 3.747 1.215 4.454 2.34.99 6.03.284 8.536.254l9.789-.115c7.34-.086 14.685-.26 22.024-.26"/>
        <path fill="#031162" d="M81.392 463.26v5.247h4.997s-.11-.82 1.526-.547c1.634.273.872.874 3.541.874h4.28a.788.788 0 0 0 .384-1.478c-1.478-.823-6.562-3.733-7.77-5.453h-6.958v1.358zM58.093 463.26v5.247h4.997s-.109-.82 1.526-.547c1.635.273.871.874 3.541.874h4.28a.788.788 0 0 0 .384-1.478c-1.478-.823-6.562-3.733-7.77-5.453h-6.958v1.358z"/>
        <path fill="#031162" d="M58.185 401.58l1.608 35.97-3.25 24.959 10.166-.276s2.571-24.528 2.571-26.078c0-1.55 2.228-26.198 2.228-26.198l-13.323-8.377z"/>
        <path fill="#1957C2" d="M81.667 396.355s3.312 20.907 5.51 39.9c1.352 11.683 1.645 24.214 2.376 26.044 0 0-8.21.21-9.389.21l-2.744-25.062-8.14-22.84s-4.689-1.24-8.713-3.876c-4.025-2.636-1.928-12.42-1.928-12.42l23.028-1.956z"/>
        <path fill="#FE91A6" d="M82.1 367.558l.131.38s2.267-.71 2.562-1.005c.295-.295.83-.892.83-.892l.588-.55-1.178-3.3-2.802 3.999-.384.852.253.516z"/>
        <path fill="#FEBAC7" d="M77.563 339.462l.83 1.916c.276.641.313 1.362.096 2.026-.301.917-.628 2.2-.255 2.575.377.377 1.298 1.137 1.932 1.65a.641.641 0 0 1-.027 1.015l-.95.692s.9 2.468-.955 3.357c-1.854.889-2.84 1.465-2.84 2.609 0 1.142.591 3.71.591 3.71l-8.872-.424s1.583-3.032 1.583-5.698c0-2.666-2.963-8.886-1.583-11.255 1.38-2.37 8.28-7.9 10.45-2.173"/>
        <path fill="#E6E7E8" d="M65.815 358.004l1.441-2.862 7.913 2.445c.84.26 1.487.935 1.71 1.786l.322 1.227-11.386-2.596zM94.324 373.55l-12.068-10.075c-.266-.222-.185-.61.18-.867l9.765-6.875c.365-.257.876-.285 1.142-.063l12.069 10.075c.265.222.185.61-.18.866l-9.766 6.876c-.364.257-.875.285-1.142.064"/>
        <path fill="#000" d="M94.977 372.66l-11.525-9.62 9.223-6.494 11.524 9.621z"/>
        <path fill="#939598" d="M98.935 370.474l-.123-.103 2.086-1.468.123.102z"/>
        <path fill="#FEBAC7" d="M82.138 367.198s1.08-.306 1.628-.854c.548-.549.79-2.802.79-2.802l1.076-1.61a.85.85 0 0 0 .122-.66l-.088-.39a.386.386 0 0 0-.696-.134c-.669.983-1.823 2.647-2.273 3.098-.651.652-2.533 1.462-2.533 1.462s1.074 2.247 1.974 1.89"/>
        <path fill="#7DADFF" d="M57.781 363.135a8.58 8.58 0 0 1 9.463-5.598l10.124 1.65a7.075 7.075 0 0 1 6.07 7.583l-1.912 23.628.773 5.73s-12.353 4.776-23.66 2.183l-1.358-21.177c-.616-3.828-1.085-9.543.5-14"/>
        <path fill="#031162" d="M73.681 350.4c.229 0 .4-.206.36-.43-.229-1.258-.827-4.872-.26-5.441.689-.69-1.778-2.62-1.778-2.62s.36-2.438 2.84-2.438 2.513-.49 2.513-.49 1.365-1.813-1.7-3.123c-3.067-1.31-8.703 2.71-8.703 2.71s-2.931-.316-3.608 2.98c-.677 3.298 1.263 7.723 2.976 9.032 1.714 1.31 2.323 3.17 2.323 3.17h.31a3.991 3.991 0 0 0 3.878-3.056l.028-.114s-3.68-1.941-2.427-3.612c1.254-1.671 2.291-.226 2.291.36 0 .469.429 2.14.604 2.8.042.16.187.272.353.272"/>
        <path fill="#000D41" d="M78.195 343.778c-.57 0-1.035.685-1.035 1.528s.465 1.528 1.035 1.528c.57 0 1.035-.685 1.035-1.528s-.465-1.528-1.035-1.528m0 3.361c-.739 0-1.34-.823-1.34-1.833s.601-1.833 1.34-1.833c.739 0 1.34.823 1.34 1.833s-.601 1.833-1.34 1.833"/>
        <path fill="#000D41" d="M72.769 346.217a.153.153 0 0 1-.15-.126.153.153 0 0 1 .123-.177l4.239-.758a.153.153 0 0 1 .177.123.153.153 0 0 1-.123.178l-4.239.758a.154.154 0 0 1-.027.002"/>
        <path fill="#FEBAC7" d="M89.067 375.403s.781-2.482 1.13-2.83c.349-.35 2.094-1.34 2.094-1.34l1.278-2.97s1.105.407 1.105.932c0 .523-1.628 3.493.117 4.474l4.415-2.815s-.375 1.805-.985 2.417c-.61.612-7.094 5.803-7.094 5.803l-2.06-3.671z"/>
        <path fill="#E6E7E8" d="M87.188 375.752l1.601-.921 2.92 4.243-1.29 1.302z"/>
        <path fill="#7DADFF" d="M69.162 364.61s-4.665 5.321-5.346 17.328c-.682 12.007 3.95 11.597 6.948 11.597 2.997 0 19.89-12.825 19.89-12.825l-3.815-5.457-10.898 6.003s4.631-8.869 4.631-14.327c0-5.457-9.53-5.94-11.41-2.319"/>
        <path fill="#000D41" d="M68.793 394.044c-.965 0-1.983-.227-2.867-1.015-1.852-1.653-2.592-5.284-2.262-11.1.676-11.922 5.337-17.367 5.384-17.42a.153.153 0 0 1 .229.201c-.047.053-4.64 5.43-5.309 17.237-.32 5.638.407 9.29 2.16 10.854 1.255 1.118 2.836 1.016 4.073.8 1.208-.21 2.491-.9 3.428-1.403.252-.135.475-.254.66-.345a.152.152 0 1 1 .134.274c-.183.09-.402.207-.65.34-.955.513-2.263 1.216-3.52 1.434a8.511 8.511 0 0 1-1.46.143M75.571 381.633l.234-.448c.035-.067 3.503-6.748 4.401-12a.154.154 0 0 1 .177-.125.153.153 0 0 1 .124.177c-.773 4.515-3.419 10.06-4.208 11.647l5.294-2.916a.152.152 0 0 1 .207.06.152.152 0 0 1-.06.207l-6.169 3.398z"/>
        <path fill="#031162" d="M74.755 391.758s3.956-2.052 6.845-2.281l.189-2.324-7.034 4.605z"/>
        <path fill="#F1F2F2" d="M137.199 316.076l20.163.268.016-1.19-20.163-.269z"/>
        <path fill="#F1F2F2" d="M166.985 297.416l-9.618 17.75 1.044.569 9.619-17.751z"/>
        <path fill="#D1D3D4" d="M156.925 315.51c.012.381.316.68.678.669.362-.011.646-.33.633-.712-.012-.381-.315-.681-.677-.669-.362.011-.646.33-.634.711"/>
        <path fill="#FFF" d="M157.256 315.499c.006.189.156.337.336.331a.333.333 0 0 0 .313-.352.333.333 0 0 0-.335-.332.333.333 0 0 0-.314.353"/>
        <path fill="#FEBAC7" d="M142.018 315.043l4.148.472a4.72 4.72 0 0 0 2.907-.61l2.177-1.265 1.615 1.244a.67.67 0 0 0 .923-.965l-1.924-2.296a1.174 1.174 0 0 0-1.222-.376l-.844.24-.507-.366a1.22 1.22 0 0 0-1.533.087l-.176.16-4.658-.82-.906 4.495zM133.828 264.985l.313 4.236a.505.505 0 0 1-.488.543l-1.088.035-.406 1.544a3.963 3.963 0 0 1-2.172 2.547c-.772.352-2.205.346-2.205.346l-.708 3.422-10.324-.665a21.32 21.32 0 0 0 5.405-10.373l1.11-5.41s.377-4.3 6.362-4.49c5.985-.192 4.201 8.265 4.201 8.265"/>
        <path fill="#1957C2" d="M128.91 276.31l-9.822-1.027c-4.237-.898-12.295 2.52-14.567 12.756-1.727 9.651-1.886 18.649-1.376 24.941l28.05 2.722c.909-6.756 1.39-14.282 4.009-17.941 1.221-1.708 2.097-3.645 2.43-5.72 1.563-9.741-4.717-15.314-8.724-15.732"/>
        <path fill="#031162" d="M103.145 312.98l.188 5.903c.006.159.019.32.043.477 1.461 9.696 9.016 13.562 15.173 13.365l31.642-5.326c-.116 3.602 6.382 12.575 14.79 27.777l5.133-.888-9.983-34.603a4.604 4.604 0 0 0-4.27-3.363l-29.27-1.066-23.446-2.276z"/>
        <path fill="#031162" d="M103.376 319.36a4.143 4.143 0 0 1-.043-.477l-.188-5.903 23.445 2.276 4.881.177-.276.27s-21.208-1.756-27.661 4.567a20.286 20.286 0 0 1-.158-.91"/>
        <path fill="#1957C2" d="M124.207 282.132c-4.485-2.605-10.23-.999-12.728 3.552-3.304 6.02-5.149 12.574-5.726 19.592 0 0-.639 3.83 3.602 5.6 2.336.975 12.004 2.234 20.222 3.169 6.709.764 12.45 1.31 12.45 1.31l1.167-5.181-10.394-3.763-9.429-3.414 4.423-8.652a9.251 9.251 0 0 0 .05-8.331 9.197 9.197 0 0 0-3.637-3.882"/>
        <path fill="#000D41" d="M127.826 294.496a.154.154 0 0 1-.168-.22 9.151 9.151 0 0 0 .048-8.194.154.154 0 1 1 .276-.137 9.458 9.458 0 0 1-.05 8.47.153.153 0 0 1-.106.08"/>
        <path fill="#000D41" d="M123.403 303.148a.154.154 0 0 1-.169-.22l4.423-8.653a.154.154 0 1 1 .274.14l-4.423 8.653a.151.151 0 0 1-.105.08"/>
        <path fill="#000D41" d="M131.103 305.937a.148.148 0 0 1-.084-.006l-7.7-2.788a.155.155 0 0 1 .105-.29l7.7 2.787a.154.154 0 0 1-.021.297M129.609 314.196a.142.142 0 0 1-.05.002c-7.93-.902-17.882-2.186-20.263-3.18-4.304-1.794-3.702-5.728-3.696-5.768.59-7.158 2.523-13.771 5.744-19.64a.154.154 0 1 1 .27.149c-3.2 5.83-5.12 12.401-5.708 19.53-.026.164-.565 3.746 3.51 5.444 1.857.776 8.836 1.869 20.179 3.159a.154.154 0 0 1 .014.304"/>
        <path fill="#031162" d="M169.936 354.294l1.438 1.484 3.927 1.337a.825.825 0 0 1-.239 1.603l-10.046.322.002-3.896 4.918-.85zM119.787 262.503c-.003-1.496.691-4.068 3.436-5.123 3.05-1.171 8.251-1.408 8.251-1.408l-.002.002c2.329-.2 4.28 1.875 3.856 4.245 0 0-.172 2.146-4.53.145l-1.394 5.77s-1.807-.929-3.152.102c-1.347 1.03.12 3.747.12 3.747l-.702.918a2.853 2.853 0 0 1-2.634 1.098 2.86 2.86 0 0 1-2.473-2.51l-.752-6.531-.02-.17a2.302 2.302 0 0 1-.004-.285"/>
        <path fill="#000" d="M474.89 463.671s.728 5.741 17.954 4.777c17.226-.964 34.074-.328 42.111 0 8.036.33 21.914-3.233 18.041-6.785-3.873-3.553-18.527-2.704-30.162-3.832-11.635-1.127-16.575-5.397-23.222-4.498-6.648.898-18.197 6.572-21.527 5.055-3.33-1.517-10.941 3.087-3.195 5.283"/>
        <path fill="#1957C2" d="M536.109 371.35s7.39 18.36 6.524 21.701c-.865 3.342-10.01.619-10.01.619l3.007-21.728"/>
        <path fill="#4E405C" d="M498.884 453.333h1.455v-52.496h-1.455z"/>
        <path fill="#4E405C" d="M513.258 433.214h-1.454c0-.305-.76-1.04-3.639-1.632-2.402-.495-5.647-.767-9.137-.767-8.226 0-12.775 1.419-12.775 2.4h-1.455c0-3.579 10.892-3.857 14.23-3.857 3.339 0 14.23.278 14.23 3.856"/>
        <path fill="#4E405C" d="M516.287 457.63l-10.526-58.6 1.431-.257 10.526 58.599z"/>
        <path fill="#4E405C" d="M514.32 459.95h5.022v-2.89h-5.022zM497.1 455.452h5.023V452.4H497.1zM481.578 457.63l-1.43-.258 10.526-58.6 1.43.258z"/>
        <path fill="#4E405C" d="M478.524 459.95h5.022v-3.363h-5.022zM499.028 436.331c-3.585 0-6.934-.283-9.43-.797-3.23-.664-4.8-1.665-4.8-3.059h1.455c0 .981 4.549 2.4 12.775 2.4 8.227 0 12.776-1.419 12.776-2.4h1.454c0 3.578-10.891 3.856-14.23 3.856"/>
        <path fill="#9E8FAE" d="M518.422 397.496v-.003c0-1.545-8.347-2.799-18.645-2.799-10.299 0-18.647 1.254-18.647 2.8V398.862c0 1.545 8.348 2.798 18.647 2.798 10.298 0 18.646-1.253 18.646-2.798v-.003-.002-.003-.002-.002-.002-.002-.003-.002-.002-.003-.002-.003-.002-.001-.003-.002-.003-.002-.002-.002-.003-.002-.003-.002-.001-.003-.002-.003-.002-.002-.002-.003-.002-.003-.001-.002-.003-.002-.003-.002-.002-.002-.003-.002-.002-.002-.003-.002-.002-.003-.002-.002-.002-.003-.002-.002-.002-.003-.002-.002-.003-.002-.002-.002-.002-.003-.002-.002-.003-.002-.003-.002-.002-.002-.002-.003-.002-.002-.002-.003-.002-.003-.002-.002-.002-.002-.003-.002-.002-.002-.003-.002-.003-.002-.002-.002-.002-.003-.002-.002-.002-.003-.002-.003-.002-.002-.002-.002-.003-.002-.002-.002-.003-.003-.002-.001-.003-.002-.003-.002-.002-.002-.003-.002-.003-.002-.001-.003-.002-.003-.002-.002-.002-.003-.002-.003-.001-.002-.003-.002-.003-.002-.002-.002-.003-.002-.002-.002-.002-.003-.002-.003-.002-.002-.002-.003-.002-.002-.002-.003-.002-.002-.003-.002-.002-.002-.002-.003-.002-.002-.003-.002-.003-.002-.002-.002-.002-.003-.002-.002-.002-.003-.002-.003-.002-.002-.002-.002-.003-.002-.002-.002-.003-.002-.003-.002-.002-.002-.002-.003-.002-.002-.002-.003-.002-.003-.002-.002-.002-.002-.003-.002-.002-.002-.003-.002-.003-.001-.003-.002-.003-.002-.002-.002-.003-.002-.003-.001-.002-.003-.002-.003-.002-.002-.002-.003-.002-.003-.001-.002-.003-.002-.003-.002-.002-.002-.003-.002-.002-.002-.002-.003-.002-.003-.002-.002-.002-.003-.002-.002-.002-.003-.002-.003-.002-.002-.002-.002-.002-.003-.002-.002-.003-.002-.003-.002-.002-.002-.002-.002-.003-.002-.002-.003-.002-.003-.002-.002-.002-.002-.003-.002-.002-.002-.003-.002-.003-.002-.002-.002-.002-.003-.002-.002-.002-.003-.002-.003-.002-.002-.002-.002-.003-.002-.002-.002-.003-.002-.003-.001-.003-.002-.002-.003-.002-.002-.002-.003-.002-.002-.002-.003-.002-.003-.002-.002-.002-.003-.002-.003-.001-.002-.003-.002-.003-.002-.002-.002-.003-.002-.002-.002-.002-.003-.002-.003-.002-.002-.002-.003-.002-.002-.002-.002-.003-.002-.003-.002-.002-.002-.002-.003-.002-.002-.003-.002-.003V398v-.002-.002-.002-.003-.002-.002-.002-.003-.002-.003-.002-.002-.002-.002-.003-.002-.002-.002-.003-.002-.003-.002-.002-.002-.002-.003-.002-.002-.002-.003-.002-.003-.002-.002-.002-.002-.003-.002-.002-.002-.003-.002-.003-.001-.003-.002-.002-.003-.002-.002-.002-.003-.002-.002-.002-.003-.002-.003-.002-.002-.002-.002-.003-.002-.002-.002-.003-.002-.003-.002-.002-.002-.003-.002-.002-.002-.002-.003-.002-.003-.002-.002-.002-.003-.002-.002-.002-.002-.003-.002-.003-.002-.002-.002-.002-.003-.002-.002-.002-.003-.002-.003-.002-.002-.002-.003-.002-.002-.002-.003-.002-.003-.002-.002-.002-.002-.003-.002-.002-.002-.003-.002-.003-.002-.002-.002-.002-.003-.002-.002-.002-.003-.002-.003-.002-.001-.003-.002-.003-.002-.002-.002-.003-.002-.003-.001-.003-.002-.003-.002-.002-.002-.002-.003-.002-.002-.002-.003-.002-.003-.002-.002-.002-.002-.003-.002-.002-.002-.003-.002-.003-.002-.002-.002-.002-.003-.002-.002-.002-.003-.002-.003-.002-.002-.002-.003-.002-.002-.002-.002-.003-.002-.003-.002-.002-.002-.002-.003-.002-.002-.002-.003-.002-.003-.002-.002-.002-.002-.003-.002-.002-.002-.003-.003-.002-.002-.002-.002-.003-.002-.002-.002"/>
        <path fill="#D4D3E7" d="M499.777 394.694c10.297 0 18.646 1.253 18.646 2.8 0 1.545-8.349 2.798-18.646 2.798-10.299 0-18.647-1.253-18.647-2.799s8.348-2.799 18.647-2.799"/>
        <path fill="#FFF" d="M509.706 397.106h-20.887l-4.628-13.759h20.887z"/>
        <path fill="#1345C9" d="M507.7 394.985h-18.13l-3.688-10.706h18.129z"/>
        <path fill="#14255E" d="M504.01 384.279h-18.128l.056.162h17.938l3.632 10.544h.191z"/>
        <path fill="#E6E7E8" d="M509.706 397.106h-20.887l-.582-1.734h20.885z"/>
        <path fill="#F1F2F2" d="M514.685 396.579h-25.91l-4.583-13.232a3.739 3.739 0 0 0-.044 2.558l3.913 11.356a.755.755 0 0 0 .713.509h25.91a.595.595 0 0 0 0-1.191"/>
        <path fill="#CCC" d="M488.774 396.579h1.84v1.19h-1.84a.754.754 0 0 1-.713-.508l-3.913-11.356a3.739 3.739 0 0 1 .044-2.558l4.582 13.232z"/>
        <path fill="#FFF" d="M488.936 397.147a.235.235 0 1 1-.471 0 .235.235 0 0 1 .47 0M503.832 395.94H493.51a.49.49 0 0 1-.45-.293l-.216-.5h11.036l.188.43a.259.259 0 0 1-.237.363"/>
        <path fill="#999" d="M495.062 396.579c-.558 0-.558 1.19 0 1.19h-6.288c.693 0 .693-1.19 0-1.19h6.288z"/>
        <path fill="gray" d="M491.18 396.997h1.924c.106 0 .192.086.192.192v.071a.192.192 0 0 1-.192.191h-1.923a.192.192 0 0 1-.192-.19v-.072c0-.106.086-.192.192-.192"/>
        <path fill="#FEBAC7" d="M488.815 451.253l-2.804-.649-7.278 4.425 1.21.925 7.505 1.106 1.17-1.532z"/>
        <path fill="#1957C2" d="M473.406 455.376s2.09 3.03 4.68 3.012c2.588-.018 6.666-.036 6.666-.036l-2.99 3.916 1.26.965s3.718-.856 4.837-3.535c1.118-2.681.992-4.848.992-4.848l-3.202-.944s-3.465 2.765-5.063 1.684c-1.599-1.081-1.483-1.42-1.483-1.42s-2.682 2.3-5.697 1.206"/>
        <path fill="#EB8195" d="M520.399 450.63l-2.621 1.191-3.1 7.941h1.523l6.633-3.687v-1.929z"/>
        <path fill="#031162" d="M510.657 463.279s3.499 1.134 5.544-.454c2.046-1.588 5.274-4.084 5.274-4.084v4.93h1.586s2.435-2.94 1.7-5.75c-.738-2.81-2.153-4.455-2.153-4.455l-3.116 1.198s-1.075 4.304-3.001 4.417c-1.926.113-2.04-.227-2.04-.227s-.735 3.46-3.794 4.425M534.955 413.144s-7.451 4.217-13.697 3.964c-6.247-.254-9.538-.888-9.538-.888s4.81 2.282 6.203 6.086c1.393 3.805 3.335 28.805 3.335 28.805l-4.348 1.288s-14.053-33.643-14.94-37.828c-.885-4.184 5.825-4.184 7.597-4.31 1.773-.127 25.388 2.883 25.388 2.883"/>
        <path fill="#4E405C" d="M528.037 458.57h1.454v-40.473h-1.454z"/>
        <path fill="#4E405C" d="M540.968 443.115c-.383-.73-5.039-1.74-12.787-1.74-7.747 0-12.404 1.01-12.786 1.74a.146.146 0 0 0 .01-.056h-1.454c0-2.732 8.916-3.14 14.23-3.14 5.315 0 14.23.408 14.23 3.14h-1.455c0 .029.009.05.012.056"/>
        <path fill="#9E8FAE" d="M545.447 461.948l-10.526-45.177 1.417-.331 10.526 45.177z"/>
        <path fill="#4E405C" d="M543.472 463.671h5.023v-3.267h-5.023zM526.253 460.203h5.023v-3.267h-5.023z"/>
        <path fill="#9E8FAE" d="M510.724 461.948l-1.417-.331 10.527-45.177 1.416.331z"/>
        <path fill="#4E405C" d="M507.677 463.671h5.022v-3.267h-5.022z"/>
        <path fill="#9E8FAE" d="M528.181 445.63c-3.574 0-6.911-.218-9.397-.613-3.343-.53-4.833-1.31-4.833-2.528h1.455a.141.141 0 0 0-.011-.056c.383.73 5.039 1.74 12.786 1.74 7.748 0 12.404-1.01 12.787-1.74a.141.141 0 0 0-.011.056h1.454c0 2.733-8.915 3.14-14.23 3.14"/>
        <path fill="#1957C2" d="M547.122 416.23c.002-.733-1.888-2.405-5.947-2.382-2.473.014-12.978-.605-28.943.243 0 0-1.826.278-1.826 2.138 0 1.862 3.168 2.234 4.196 2.442 1.03.208 25.576 1.458 29.47 0 3.202-1.2 3.05-2.441 3.05-2.441"/>
        <path fill="#031162" d="M534.142 413.77a295.504 295.504 0 0 0-21.91.321s-1.417.216-1.754 1.541c2.861.577 18.222 3.376 23.664-1.863"/>
        <path fill="#031162" d="M510.406 418.67c0 3.256 36.717 3.256 36.717 0v-2.44c0 3.255-36.717 3.255-36.717 0v2.44z"/>
        <path fill="#1957C2" d="M537.503 403.492s3.336 11.587-10.873 12.475c-10.646.664-21.747-2.41-21.747-2.41s1.266 8.803-2.026 16.511c-3.292 7.708-12.534 22.331-12.534 22.331l-6.584-1.287s11.902-43.388 12.281-45.797c.38-2.41 25.238-2.282 25.238-2.282l16.245.459z"/>
        <path fill="#FEBAC7" d="M512.137 359.08s1.94 1.77 1.94 3.577 2.072 5.115 4.84 3.593l.277 3.206 5.545-1.267s-1.945-2.535-1.848-5.31c.097-2.777-3.263-12.01-7.031-10.51-3.768 1.497-5.377 4.177-3.723 6.71"/>
        <path fill="#F27A3B" d="M510.406 377.237s.28-7.783 17.272-12.922c7.35-2.223 9.373 9.422 10.726 17.42 1.354 8-.71 15.252-.71 15.252l1.083 4.475c.462 4.496-19.217 6.526-19.68 2.03 0 0 2.619-12.267 0-20.74-2.922-9.456-8.69-5.515-8.69-5.515"/>
        <path fill="#FEBAC7" d="M518.037 376.427c-1.378-4.56-8.253-3.113-7.59 1.606.011.08.025.164.04.246.947 5.287 3.79 16.133 3.79 16.133l-5.686-2.97s-1.234-3.96-2.456-3.415c-1.222.545-1.403 1.678-1.403 1.678s-1.313-1.451-1.947-.453c-.634.997-.408 1.813-.408 1.813s-.68-1.043-1.313-.499c-.634.544-.453 2.585-.77 3.492s-.271 1.315.589.771c.86-.544 1.041-2.04 1.041-2.04s-.18 1.496 2.445 1.723l2.626.227s9.508 7.618 12.677 6.801c2.626-.675 1.927-13.332-1.635-25.113"/>
        <path fill="#031162" d="M509.027 355.58s.535 4.038 6.022 2.825c4.132-.914-1.625 9.325.858 12.944 2.149-2.448 5.18-3.96 8.429-4.144 2.353-.133 4.644-1.404 3.725-6.214-.603-3.155-1.869-6.482-3.336-9.157-3.768-6.87-15.828-1.173-15.698 3.747"/>
        <path fill="#1957C2" d="M510.447 378.032c.012.082.025.164.04.247.947 5.287 3.79 16.132 3.79 16.132l-4.304-2.247c-.696.524-1.59 1.59-1.625 3.615 2.74 2.056 8.895 6.387 11.324 5.761 2.626-.676 1.927-13.332-1.635-25.114-1.378-4.56-8.253-3.112-7.59 1.606"/>
        <path fill="#9E8FAE" d="M451.4.962l-.09-.55c.367-.059.734-.116 1.101-.172l.083.55c-.366.055-.73.113-1.095.172M93.9 166.867c-.215-.305-.426-.61-.636-.917l.459-.314c.208.304.418.609.63.911l-.454.32z"/>
    </g>
</svg>
